<?xml version="1.0" encoding="UTF-8" standalone="no"?>
<!-- Created with Inkscape (http://www.inkscape.org/) -->

<svg
   xmlns:dc="http://purl.org/dc/elements/1.1/"
   xmlns:cc="http://creativecommons.org/ns#"
   xmlns:rdf="http://www.w3.org/1999/02/22-rdf-syntax-ns#"
   xmlns:svg="http://www.w3.org/2000/svg"
   xmlns="http://www.w3.org/2000/svg"
   xmlns:sodipodi="http://sodipodi.sourceforge.net/DTD/sodipodi-0.dtd"
   xmlns:inkscape="http://www.inkscape.org/namespaces/inkscape"
   width="607.8642"
   height="680.0528"
   id="svg2"
   version="1.1"
   inkscape:version="0.48.4 r9939"
   sodipodi:docname="bg.svg">
  <defs
     id="defs4">
    <inkscape:path-effect
       effect="spiro"
       id="path-effect3791"
       is_visible="true" />
    <linearGradient
       id="linearGradient3757">
      <stop
         style="stop-color:#e88d19;stop-opacity:1;"
         offset="0"
         id="stop3759" />
      <stop
         style="stop-color:#570040;stop-opacity:1;"
         offset="1"
         id="stop3761" />
    </linearGradient>
    <inkscape:path-effect
       effect="spiro"
       id="path-effect2987"
       is_visible="true" />
  </defs>
  <sodipodi:namedview
     id="base"
     pagecolor="#ffffff"
     bordercolor="#666666"
     borderopacity="1.0"
     inkscape:pageopacity="0.0"
     inkscape:pageshadow="2"
     inkscape:zoom="0.35"
     inkscape:cx="442.26946"
     inkscape:cy="422.85598"
     inkscape:document-units="px"
     inkscape:current-layer="layer1"
     showgrid="false"
     inkscape:window-width="1366"
     inkscape:window-height="706"
     inkscape:window-x="0"
     inkscape:window-y="27"
     inkscape:window-maximized="1"
     objecttolerance="20"
     fit-margin-top="0"
     fit-margin-left="0"
     fit-margin-right="0"
     fit-margin-bottom="0" />
  <metadata
     id="metadata7">
    <rdf:RDF>
      <cc:Work
         rdf:about="">
        <dc:format>image/svg+xml</dc:format>
        <dc:type
           rdf:resource="http://purl.org/dc/dcmitype/StillImage" />
        <dc:title></dc:title>
      </cc:Work>
    </rdf:RDF>
  </metadata>
  <g
     inkscape:label="Layer 1"
     inkscape:groupmode="layer"
     id="layer1"
     transform="translate(3200.1266,3833.4061)">
    <path
       style="fill:none;stroke:#570040;stroke-width:4.69999981;stroke-linecap:butt;stroke-linejoin:miter;stroke-miterlimit:4;stroke-opacity:1;stroke-dasharray:none;stroke-dashoffset:0"
       d="m -2737.4695,-3155.7033 c -3.6388,-27.8531 -15.8182,-54.5316 -34.4797,-75.5265 -20.022,-22.5254 -47.4359,-38.3696 -76.9489,-44.4735 -55.8745,13.6995 -115.942,9.7411 -169.5355,-11.1725 -53.5935,-20.9135 -100.466,-58.6857 -132.2938,-106.6089 -31.8278,-47.9231 -48.4642,-105.7764 -46.9548,-163.2861 1.5094,-57.5096 21.1575,-114.4106 55.4553,-160.5983 34.2978,-46.1877 83.0872,-81.4492 137.7039,-99.5226 54.6167,-18.0735 114.8092,-18.8757 169.8882,-2.2641 55.0789,16.6116 104.7906,50.5604 140.3071,95.8176 35.5164,45.2573 56.674,101.6145 59.7154,159.0635 4.0451,76.4072 -23.0187,152.5572 -14.2858,228.5714 1.7993,15.6617 5.1496,31.254 11.4286,45.7143 9.0095,20.7485 24.0734,38.8253 42.8571,51.4286"
       id="path2985"
       inkscape:path-effect="#path-effect2987"
       inkscape:original-d="m -2737.4695,-3155.7033 c -47.9545,-28.4869 -57.8374,-114.7858 -34.4797,-75.5265 45.2488,76.0536 -82.2533,-86.9771 -76.9489,-44.4735 0.3951,47.0043 236.0347,-209.8831 214.2858,-288.5714 -19.012,-68.7862 -8.9322,177.5036 -14.2858,228.5714 -7.2423,69.0835 -6.1207,80.8129 11.4286,45.7143 10.9398,-21.8794 -35.3648,-124.5707 42.8571,51.4286"
       inkscape:connector-curvature="0"
       sodipodi:nodetypes="cscsssc" />
    <path
       style="fill:none;stroke:#e88d19;stroke-width:5.5999999;stroke-linecap:butt;stroke-linejoin:miter;stroke-miterlimit:4;stroke-opacity:1;stroke-dasharray:none"
       d="m 897.14286,666.37055 c 8.20534,-20.62034 10.23038,-43.65502 5.74868,-65.39071 -4.4817,-21.7357 -15.45327,-42.09059 -31.14604,-57.78336 -15.69277,-15.69277 -36.04766,-26.66434 -57.78336,-31.14604 -21.73569,-4.4817 -44.77037,-2.45666 -65.39071,5.74868 -15.88651,6.14799 -30.63465,15.84202 -47.45125,18.5588 -8.4083,1.35839 -17.29339,0.8404 -25.03366,-2.71389 -3.87014,-1.77714 -7.4136,-4.30236 -10.2328,-7.49427 -2.8192,-3.19191 -4.90106,-7.05704 -5.85372,-11.20778 -3.07439,-8.21262 -2.45457,-17.54001 0.69736,-25.72319 3.15192,-8.18318 8.69038,-15.29045 15.146,-21.22543 12.91124,-11.86997 29.2877,-19.18845 43.5383,-29.41178 7.1253,-5.11167 13.78379,-11.02581 18.80633,-18.21421 5.02254,-7.1884 8.34519,-15.74209 8.38986,-24.51118 0.0223,-4.38455 -0.77743,-8.78566 -2.47309,-12.82911 -1.69565,-4.04345 -4.29584,-7.7218 -7.63519,-10.5632 -3.33935,-2.84139 -7.42135,-4.83003 -11.74292,-5.57083 -4.32157,-0.7408 -8.87245,-0.21355 -12.85424,1.62223 -1.68057,-0.77135 -3.42335,-1.48273 -4.84378,-2.66666 -0.71022,-0.59196 -1.33221,-1.30126 -1.75678,-2.12258 -0.42457,-0.82132 -0.6452,-1.75883 -0.55337,-2.67883 0.0918,-0.92 0.50952,-1.81724 1.20644,-2.4248 0.34845,-0.30379 0.76274,-0.5333 1.20788,-0.65804 0.44514,-0.12473 0.92074,-0.14368 1.37238,-0.045 0.45164,0.0986 0.87816,0.31566 1.21713,0.62999 0.33898,0.31432 0.58859,0.72591 0.70118,1.17427 0.11258,0.44837 0.0863,0.93203 -0.0832,1.3621 -0.16954,0.43007 -0.48293,0.80361 -0.88195,1.03705 0,10e-6 -3e-5,10e-6 -3e-5,-1e-5 0,-10e-6 3e-5,-10e-6 3e-5,0 0,2e-5 -2e-5,3e-5 -3e-5,2e-5 -1e-5,-2e-5 10e-6,-4e-5 2e-5,-3e-5 2e-5,10e-6 10e-6,3e-5 0,3e-5 -2e-5,1e-5 -3e-5,-2e-5 -2e-5,-3e-5 10e-6,-1e-5 3e-5,0 4e-5,2e-5 0,10e-6 -3e-5,2e-5 -4e-5,10e-6 -2e-5,-10e-6 -1e-5,-5e-5 2e-5,-5e-5 2e-5,-1e-5 4e-5,2e-5 4e-5,4e-5 -10e-6,2e-5 -4e-5,3e-5 -6e-5,10e-6 -2e-5,-10e-6 -2e-5,-4e-5 10e-6,-6e-5 2e-5,-10e-6 5e-5,1e-5 5e-5,3e-5 10e-6,2e-5 -10e-6,5e-5 -3e-5,5e-5 -3e-5,0 -5e-5,-2e-5 -5e-5,-4e-5 0,-2e-5 2e-5,-5e-5 4e-5,-5e-5 0.006,-0.003 0.0143,-3.1e-4 0.0179,0.005 0.004,0.006 0.003,0.014 -0.002,0.0188 -0.005,0.005 -0.0128,0.006 -0.0189,0.003 -0.006,-0.003 -0.01,-0.01 -0.01,-0.0167 3.2e-4,-0.007 0.005,-0.0132 0.0108,-0.0162 0.006,-0.003 0.0137,-0.003 0.0196,7.2e-4 0.006,0.003 0.0101,0.01 0.0113,0.0162 0.001,0.007 -5.2e-4,0.0138 -0.004,0.0194 -0.004,0.006 -0.01,0.01 -0.0164,0.0114 -0.007,0.002 -0.0137,0.001 -0.0201,-7.7e-4 -0.006,-0.002 -0.0122,-0.006 -0.0168,-0.0113 -0.005,-0.005 -0.008,-0.0111 -0.0101,-0.0176 -0.004,-0.0129 -0.004,-0.0271 -6.3e-4,-0.0404 0.003,-0.0133 0.008,-0.0259 0.0138,-0.0384 -0.0415,0.0143 -0.0833,0.029 -0.12118,0.0512 -0.0379,0.0222 -0.0721,0.0526 -0.092,0.0918 -0.01,0.0196 -0.0162,0.0412 -0.0172,0.0631 -10e-4,0.0219 0.003,0.0442 0.0133,0.0638 0.01,0.0196 0.0258,0.0363 0.0452,0.0466 0.0194,0.0103 0.0424,0.0139 0.0639,0.009 0.0215,-0.005 0.0411,-0.018 0.0527,-0.0366 0.0116,-0.0187 0.0148,-0.0425 0.008,-0.0633 -0.007,-0.0208 -0.0249,-0.0378 -0.0462,-0.0433 -0.0213,-0.005 -0.0454,0.001 -0.0604,0.0172 -0.0149,0.0161 -0.0196,0.0413 -0.0105,0.0613 0.009,0.02 0.0315,0.0334 0.0533,0.0308 0.0218,-0.003 0.0409,-0.0212 0.0431,-0.0431 0.002,-0.0219 -0.0134,-0.0443 -0.0349,-0.0492 -27.10756,1.16204 -51.32964,25.94809 -50.93601,53.07769 0.39364,27.12959 26.25695,51.47206 53.30411,49.32246 27.04717,-2.14959 48.88526,-31.28471 42.50847,-57.65716 -6.37679,-26.37246 -40.18454,-42.21331 -64.1459,-29.4845 -23.96139,12.72893 -29.30465,50.64046 -9.23667,68.90107 20.06798,18.2606 58.09678,8.49911 66.1394,-17.41402 8.04262,-25.91312 -18.97381,-55.75991 -45.39475,-49.58676 -26.42093,6.17314 -36.93591,46.08377 -16.49579,63.92683 -1.66642,21.85064 28.04722,38.71455 45.61629,25.61664 17.56907,-13.09791 8.99173,-47.03665 -12.76398,-49.66663 -21.75571,-2.62998 -37.87655,29.39359 -22.42277,44.93091 15.45378,15.53732 47.94685,-1.5292 43.42052,-22.97075 -4.53029,-21.43483 -42.03755,-23.0789 -47.94949,-1.9833 -5.91194,21.0956 28.17018,38.76832 41.63066,21.48275 13.46048,-17.28557 -13.31202,-45.96676 -31.21986,-33.34595 -17.90784,12.62081 1.39674,47.73428 21.47362,38.96535 -6.60775,0.7166 -13.39976,-1.24828 -18.8468,-5.05689 -5.44705,-3.80862 -9.56425,-9.38491 -11.99202,-15.57213 -2.42778,-6.18723 -3.2067,-12.96219 -2.66753,-19.58677 0.53917,-6.62459 2.37058,-13.10614 4.98822,-19.21546 5.23528,-12.21864 13.50265,-22.84849 21.62507,-33.3713 8.12243,-10.52282 16.28616,-21.25524 21.2631,-33.58137 2.48814,-6.16298 4.14925,-12.69592 4.47873,-19.33404 0.32948,-6.63811 -0.70017,-13.38735 -3.38638,-19.46661 -2.6862,-6.07927 -7.06957,-11.46164 -12.70939,-14.97812 -5.63981,-3.51649 -12.54603,-5.08706 -19.09513,-3.95465 -6.54911,1.13241 -12.64575,5.05535 -16.0588,10.75835 -1.70653,2.8515 -2.74111,6.10923 -2.93978,9.42642 -0.19868,3.3172 0.44415,6.68787 1.89719,9.67651 1.45304,2.98864 3.718,5.58523 6.51034,7.38694 2.79234,1.8017 6.10676,2.7972 9.42986,2.78021 3.3231,-0.017 6.6415,-1.0538 9.35359,-2.97418 2.71209,-1.92037 4.7996,-4.72141 5.81579,-7.88537 -0.12001,0.0528 -0.20353,0.17872 -0.2076,0.30976 -0.004,0.13104 0.0705,0.26101 0.18458,0.32555 0.11411,0.0646 0.26265,0.0619 0.37551,-0.005 0.11285,-0.0667 0.18648,-0.19437 0.18993,-0.32543 0.003,-0.13106 -0.0625,-0.26151 -0.16883,-0.33821 -0.10632,-0.0767 -0.24974,-0.0983 -0.37465,-0.0585 -0.1249,0.0399 -0.22872,0.13957 -0.27568,0.26197 -0.047,0.12241 -0.0368,0.26495 0.025,0.38057 0.0618,0.11563 0.17375,0.20281 0.30042,0.23663 0.12666,0.0338 0.26624,0.0144 0.38004,-0.0507 0.11379,-0.0651 0.20084,-0.17475 0.24068,-0.29966 0.0398,-0.12491 0.0326,-0.26383 -0.0179,-0.38483 -0.0505,-0.12099 -0.14344,-0.22337 -0.25788,-0.28734 -0.11444,-0.064 -0.24953,-0.0895 -0.37973,-0.0741 -0.1302,0.0154 -0.25498,0.0713 -0.35467,0.15647 -0.0997,0.0851 -0.17417,0.19899 -0.21455,0.32372 -0.0408,0.12514 -0.0475,0.26088 -0.0217,0.38993 0.0258,0.12906 0.0839,0.25124 0.16584,0.35426 0.16382,0.20604 0.4214,0.3297 0.68407,0.34692 0.26266,0.0172 0.52771,-0.0678 0.74272,-0.21969 0.21501,-0.15185 0.38107,-0.36779 0.4905,-0.60719 0.21885,-0.47882 0.2113,-1.03161 0.12431,-1.55083 -0.087,-0.51922 -0.24851,-1.02419 -0.3261,-1.5449 13.96909,-19.18304 31.94925,-36.61967 54.54488,-43.86961 11.29782,-3.62497 23.57074,-4.54107 35.11033,-1.78083 11.53959,2.76024 22.27783,9.31936 29.3402,18.85372 7.06237,9.53435 10.2124,22.06713 7.69104,33.66126 -1.26067,5.79706 -3.89692,11.30325 -7.70707,15.85056 -3.81016,4.5473 -8.79522,8.11958 -14.36447,10.16377 -5.56925,2.0442 -11.71211,2.54275 -17.51666,1.31703 -5.80456,-1.22573 -11.24703,-4.18568 -15.35339,-8.4674 -4.10635,-4.28172 -6.84556,-9.87677 -7.60286,-15.76079 -0.7573,-5.88403 0.49021,-12.0245 3.57486,-17.09207 2.69485,-5.28403 7.30021,-9.58756 12.79514,-11.82117 5.49493,-2.23361 11.8372,-2.35549 17.37734,-0.2365 5.54014,2.119 10.20637,6.4783 12.60217,11.90448 2.3958,5.42618 2.4631,11.85573 0.0867,17.29042 -2.37641,5.4347 -7.18471,9.77281 -12.86469,11.4819 -5.67999,1.70909 -12.12931,0.72452 -16.98318,-2.68476 -4.85387,-3.40927 -7.97941,-9.19265 -8.07176,-15.12347 -0.0923,-5.93083 2.88861,-11.84802 7.76678,-15.22244 4.87832,-3.37439 11.52177,-4.0656 16.95144,-1.67747 5.42967,2.38814 9.42844,7.8071 10.0125,13.70993 0.58405,5.90284 -2.31691,12.04385 -7.30015,15.26128 -4.98324,3.21742 -11.83311,3.31424 -16.85527,0.1579 -5.02216,-3.15634 -7.91123,-9.43457 -6.94856,-15.28759 0.96267,-5.85302 5.77009,-10.90427 11.58729,-12.06392 5.81719,-1.15965 12.24232,1.71061 15.18064,6.86336 2.93832,5.15275 2.10297,12.20598 -2.02355,16.46701 1.30967,-1.96826 2.02528,-4.32024 2.07203,-6.68394 0.0467,-2.3637 -0.57082,-4.73211 -1.73249,-6.79119 -1.16168,-2.05907 -2.86123,-3.80621 -4.86727,-5.05724 -2.00604,-1.25103 -4.31324,-2.00692 -6.66741,-2.22413 -4.70832,-0.43443 -9.5195,1.34073 -13.01928,4.52014 -3.49977,3.17942 -5.70065,7.68044 -6.35811,12.36283 -0.65746,4.6824 0.18321,9.52223 2.10551,13.84216 1.92231,4.31993 4.89792,8.13063 8.42261,11.28239 7.04939,6.30353 16.09018,9.90464 25.14787,12.62246 9.05775,2.71786 18.37259,4.69096 27.09737,8.33896 8.72478,3.64799 17.01496,9.22602 21.77641,17.39659 2.38073,4.08528 3.81108,8.76426 3.81393,13.49262 0.003,4.72836 -1.46553,9.4933 -4.37236,13.22261 -2.90683,3.7293 -7.27942,6.35326 -11.97901,6.87404 -2.3498,0.26039 -4.75982,0.003 -6.98891,-0.78477 -2.2291,-0.78771 -4.27286,-2.1077 -5.87947,-3.84211 38.31517,69.84999 75.46492,140.33926 111.42857,211.42857"
       id="path3789"
       inkscape:path-effect="#path-effect3791"
       inkscape:original-d="M 897.14286,666.37055 C 864.96485,624.29463 802.20748,553.55649 748.57143,517.79912 689.16828,478.19702 725.7364,558.76627 660,514.94198 c -3.89927,-2.59952 26.66333,-162.69774 51.87241,-146.4267 44.38436,28.64763 43.09925,1.43956 -2.41409,-6.39254 -65.0034,-11.18602 30.91086,121.95626 13.39882,104.24781 -42.28599,-42.76028 -10.46257,-210.7723 -2.33394,-154.94846 11.45266,78.6518 101.69071,18.93586 102.33395,9.23418 7.44874,-112.34733 41.75538,213.56574 28.57142,88.57142 -8.58604,-81.40245 41.56151,90.65456 111.42857,211.42857"
       inkscape:connector-curvature="0"
       transform="translate(-3597.0127,-3837.7853)"
       sodipodi:nodetypes="cssssssssc" />
  </g>
</svg>
