<?xml version="1.0" encoding="UTF-8" standalone="no"?>
<!-- Created with Inkscape (http://www.inkscape.org/) -->

<svg
   xmlns:dc="http://purl.org/dc/elements/1.1/"
   xmlns:cc="http://creativecommons.org/ns#"
   xmlns:rdf="http://www.w3.org/1999/02/22-rdf-syntax-ns#"
   xmlns:svg="http://www.w3.org/2000/svg"
   xmlns="http://www.w3.org/2000/svg"
   xmlns:sodipodi="http://sodipodi.sourceforge.net/DTD/sodipodi-0.dtd"
   xmlns:inkscape="http://www.inkscape.org/namespaces/inkscape"
   width="552.41522"
   height="187.83653"
   id="svg2"
   version="1.1"
   inkscape:version="0.48.4 r9939"
   sodipodi:docname="title.svg">
  <defs
     id="defs4">
    <inkscape:path-effect
       effect="spiro"
       id="path-effect3791"
       is_visible="true" />
    <linearGradient
       id="linearGradient3757">
      <stop
         style="stop-color:#e88d19;stop-opacity:1;"
         offset="0"
         id="stop3759" />
      <stop
         style="stop-color:#570040;stop-opacity:1;"
         offset="1"
         id="stop3761" />
    </linearGradient>
    <inkscape:path-effect
       effect="spiro"
       id="path-effect2987"
       is_visible="true" />
  </defs>
  <sodipodi:namedview
     id="base"
     pagecolor="#ffffff"
     bordercolor="#666666"
     borderopacity="1.0"
     inkscape:pageopacity="0.0"
     inkscape:pageshadow="2"
     inkscape:zoom="0.35"
     inkscape:cx="980.05754"
     inkscape:cy="-355.73199"
     inkscape:document-units="px"
     inkscape:current-layer="layer1"
     showgrid="false"
     inkscape:window-width="1366"
     inkscape:window-height="706"
     inkscape:window-x="0"
     inkscape:window-y="27"
     inkscape:window-maximized="1"
     objecttolerance="20"
     fit-margin-top="0"
     fit-margin-left="0"
     fit-margin-right="0"
     fit-margin-bottom="0" />
  <metadata
     id="metadata7">
    <rdf:RDF>
      <cc:Work
         rdf:about="">
        <dc:format>image/svg+xml</dc:format>
        <dc:type
           rdf:resource="http://purl.org/dc/dcmitype/StillImage" />
        <dc:title></dc:title>
      </cc:Work>
    </rdf:RDF>
  </metadata>
  <g
     inkscape:label="Layer 1"
     inkscape:groupmode="layer"
     id="layer1"
     transform="translate(3737.9147,4119.7778)">
    <g
       id="g3797"
       transform="matrix(0.2573529,0,0,0.25215888,-2913.7076,-3152.493)"
       style="stroke-width:9.81382561;stroke-miterlimit:4;stroke-dasharray:none">
      <path
         sodipodi:nodetypes="cscsssc"
         inkscape:connector-curvature="0"
         inkscape:original-d="m -2737.4695,-3155.7033 c -47.9545,-28.4869 -57.8374,-114.7858 -34.4797,-75.5265 45.2488,76.0536 -82.2533,-86.9771 -76.9489,-44.4735 0.3951,47.0043 236.0347,-209.8831 214.2858,-288.5714 -19.012,-68.7862 -8.9322,177.5036 -14.2858,228.5714 -7.2423,69.0835 -6.1207,80.8129 11.4286,45.7143 10.9398,-21.8794 -35.3648,-124.5707 42.8571,51.4286"
         inkscape:path-effect="#path-effect2987"
         id="path2985"
         d="m -2737.4695,-3155.7033 c -3.6388,-27.8531 -15.8182,-54.5316 -34.4797,-75.5265 -20.022,-22.5254 -47.4359,-38.3696 -76.9489,-44.4735 -55.8745,13.6995 -115.942,9.7411 -169.5355,-11.1725 -53.5935,-20.9135 -100.466,-58.6857 -132.2938,-106.6089 -31.8278,-47.9231 -48.4642,-105.7764 -46.9548,-163.2861 1.5094,-57.5096 21.1575,-114.4106 55.4553,-160.5983 34.2978,-46.1877 83.0872,-81.4492 137.7039,-99.5226 54.6167,-18.0735 114.8092,-18.8757 169.8882,-2.2641 55.0789,16.6116 104.7906,50.5604 140.3071,95.8176 35.5164,45.2573 56.674,101.6145 59.7154,159.0635 4.0451,76.4072 -23.0187,152.5572 -14.2858,228.5714 1.7993,15.6617 5.1496,31.254 11.4286,45.7143 9.0095,20.7485 24.0734,38.8253 42.8571,51.4286"
         style="fill:none;stroke:#570040;stroke-width:9.81382561;stroke-linecap:butt;stroke-linejoin:miter;stroke-miterlimit:4;stroke-opacity:1;stroke-dasharray:none;stroke-dashoffset:0" />
      <path
         sodipodi:nodetypes="cssssssssc"
         transform="translate(-3597.0127,-3837.7853)"
         inkscape:connector-curvature="0"
         inkscape:original-d="M 897.14286,666.37055 C 864.96485,624.29463 802.20748,553.55649 748.57143,517.79912 689.16828,478.19702 725.7364,558.76627 660,514.94198 c -3.89927,-2.59952 26.66333,-162.69774 51.87241,-146.4267 44.38436,28.64763 43.09925,1.43956 -2.41409,-6.39254 -65.0034,-11.18602 30.91086,121.95626 13.39882,104.24781 -42.28599,-42.76028 -10.46257,-210.7723 -2.33394,-154.94846 11.45266,78.6518 101.69071,18.93586 102.33395,9.23418 7.44874,-112.34733 41.75538,213.56574 28.57142,88.57142 -8.58604,-81.40245 41.56151,90.65456 111.42857,211.42857"
         inkscape:path-effect="#path-effect3791"
         id="path3789"
         d="m 897.14286,666.37055 c 8.20534,-20.62034 10.23038,-43.65502 5.74868,-65.39071 -4.4817,-21.7357 -15.45327,-42.09059 -31.14604,-57.78336 -15.69277,-15.69277 -36.04766,-26.66434 -57.78336,-31.14604 -21.73569,-4.4817 -44.77037,-2.45666 -65.39071,5.74868 -15.88651,6.14799 -30.63465,15.84202 -47.45125,18.5588 -8.4083,1.35839 -17.29339,0.8404 -25.03366,-2.71389 -3.87014,-1.77714 -7.4136,-4.30236 -10.2328,-7.49427 -2.8192,-3.19191 -4.90106,-7.05704 -5.85372,-11.20778 -3.07439,-8.21262 -2.45457,-17.54001 0.69736,-25.72319 3.15192,-8.18318 8.69038,-15.29045 15.146,-21.22543 12.91124,-11.86997 29.2877,-19.18845 43.5383,-29.41178 7.1253,-5.11167 13.78379,-11.02581 18.80633,-18.21421 5.02254,-7.1884 8.34519,-15.74209 8.38986,-24.51118 0.0223,-4.38455 -0.77743,-8.78566 -2.47309,-12.82911 -1.69565,-4.04345 -4.29584,-7.7218 -7.63519,-10.5632 -3.33935,-2.84139 -7.42135,-4.83003 -11.74292,-5.57083 -4.32157,-0.7408 -8.87245,-0.21355 -12.85424,1.62223 -1.68057,-0.77135 -3.42335,-1.48273 -4.84378,-2.66666 -0.71022,-0.59196 -1.33221,-1.30126 -1.75678,-2.12258 -0.42457,-0.82132 -0.6452,-1.75883 -0.55337,-2.67883 0.0918,-0.92 0.50952,-1.81724 1.20644,-2.4248 0.34845,-0.30379 0.76274,-0.5333 1.20788,-0.65804 0.44514,-0.12473 0.92074,-0.14368 1.37238,-0.045 0.45164,0.0986 0.87816,0.31566 1.21713,0.62999 0.33898,0.31432 0.58859,0.72591 0.70118,1.17427 0.11258,0.44837 0.0863,0.93203 -0.0832,1.3621 -0.16954,0.43007 -0.48293,0.80361 -0.88195,1.03705 0,10e-6 -3e-5,10e-6 -3e-5,-1e-5 0,-10e-6 3e-5,-10e-6 3e-5,0 0,2e-5 -2e-5,3e-5 -3e-5,2e-5 -1e-5,-2e-5 10e-6,-4e-5 2e-5,-3e-5 2e-5,10e-6 10e-6,3e-5 0,3e-5 -2e-5,1e-5 -3e-5,-2e-5 -2e-5,-3e-5 10e-6,-1e-5 3e-5,0 4e-5,2e-5 0,10e-6 -3e-5,2e-5 -4e-5,10e-6 -2e-5,-10e-6 -1e-5,-5e-5 2e-5,-5e-5 2e-5,-1e-5 4e-5,2e-5 4e-5,4e-5 -10e-6,2e-5 -4e-5,3e-5 -6e-5,10e-6 -2e-5,-10e-6 -2e-5,-4e-5 10e-6,-6e-5 2e-5,-10e-6 5e-5,1e-5 5e-5,3e-5 10e-6,2e-5 -10e-6,5e-5 -3e-5,5e-5 -3e-5,0 -5e-5,-2e-5 -5e-5,-4e-5 0,-2e-5 2e-5,-5e-5 4e-5,-5e-5 0.006,-0.003 0.0143,-3.1e-4 0.0179,0.005 0.004,0.006 0.003,0.014 -0.002,0.0188 -0.005,0.005 -0.0128,0.006 -0.0189,0.003 -0.006,-0.003 -0.01,-0.01 -0.01,-0.0167 3.2e-4,-0.007 0.005,-0.0132 0.0108,-0.0162 0.006,-0.003 0.0137,-0.003 0.0196,7.2e-4 0.006,0.003 0.0101,0.01 0.0113,0.0162 0.001,0.007 -5.2e-4,0.0138 -0.004,0.0194 -0.004,0.006 -0.01,0.01 -0.0164,0.0114 -0.007,0.002 -0.0137,0.001 -0.0201,-7.7e-4 -0.006,-0.002 -0.0122,-0.006 -0.0168,-0.0113 -0.005,-0.005 -0.008,-0.0111 -0.0101,-0.0176 -0.004,-0.0129 -0.004,-0.0271 -6.3e-4,-0.0404 0.003,-0.0133 0.008,-0.0259 0.0138,-0.0384 -0.0415,0.0143 -0.0833,0.029 -0.12118,0.0512 -0.0379,0.0222 -0.0721,0.0526 -0.092,0.0918 -0.01,0.0196 -0.0162,0.0412 -0.0172,0.0631 -10e-4,0.0219 0.003,0.0442 0.0133,0.0638 0.01,0.0196 0.0258,0.0363 0.0452,0.0466 0.0194,0.0103 0.0424,0.0139 0.0639,0.009 0.0215,-0.005 0.0411,-0.018 0.0527,-0.0366 0.0116,-0.0187 0.0148,-0.0425 0.008,-0.0633 -0.007,-0.0208 -0.0249,-0.0378 -0.0462,-0.0433 -0.0213,-0.005 -0.0454,0.001 -0.0604,0.0172 -0.0149,0.0161 -0.0196,0.0413 -0.0105,0.0613 0.009,0.02 0.0315,0.0334 0.0533,0.0308 0.0218,-0.003 0.0409,-0.0212 0.0431,-0.0431 0.002,-0.0219 -0.0134,-0.0443 -0.0349,-0.0492 -27.10756,1.16204 -51.32964,25.94809 -50.93601,53.07769 0.39364,27.12959 26.25695,51.47206 53.30411,49.32246 27.04717,-2.14959 48.88526,-31.28471 42.50847,-57.65716 -6.37679,-26.37246 -40.18454,-42.21331 -64.1459,-29.4845 -23.96139,12.72893 -29.30465,50.64046 -9.23667,68.90107 20.06798,18.2606 58.09678,8.49911 66.1394,-17.41402 8.04262,-25.91312 -18.97381,-55.75991 -45.39475,-49.58676 -26.42093,6.17314 -36.93591,46.08377 -16.49579,63.92683 -1.66642,21.85064 28.04722,38.71455 45.61629,25.61664 17.56907,-13.09791 8.99173,-47.03665 -12.76398,-49.66663 -21.75571,-2.62998 -37.87655,29.39359 -22.42277,44.93091 15.45378,15.53732 47.94685,-1.5292 43.42052,-22.97075 -4.53029,-21.43483 -42.03755,-23.0789 -47.94949,-1.9833 -5.91194,21.0956 28.17018,38.76832 41.63066,21.48275 13.46048,-17.28557 -13.31202,-45.96676 -31.21986,-33.34595 -17.90784,12.62081 1.39674,47.73428 21.47362,38.96535 -6.60775,0.7166 -13.39976,-1.24828 -18.8468,-5.05689 -5.44705,-3.80862 -9.56425,-9.38491 -11.99202,-15.57213 -2.42778,-6.18723 -3.2067,-12.96219 -2.66753,-19.58677 0.53917,-6.62459 2.37058,-13.10614 4.98822,-19.21546 5.23528,-12.21864 13.50265,-22.84849 21.62507,-33.3713 8.12243,-10.52282 16.28616,-21.25524 21.2631,-33.58137 2.48814,-6.16298 4.14925,-12.69592 4.47873,-19.33404 0.32948,-6.63811 -0.70017,-13.38735 -3.38638,-19.46661 -2.6862,-6.07927 -7.06957,-11.46164 -12.70939,-14.97812 -5.63981,-3.51649 -12.54603,-5.08706 -19.09513,-3.95465 -6.54911,1.13241 -12.64575,5.05535 -16.0588,10.75835 -1.70653,2.8515 -2.74111,6.10923 -2.93978,9.42642 -0.19868,3.3172 0.44415,6.68787 1.89719,9.67651 1.45304,2.98864 3.718,5.58523 6.51034,7.38694 2.79234,1.8017 6.10676,2.7972 9.42986,2.78021 3.3231,-0.017 6.6415,-1.0538 9.35359,-2.97418 2.71209,-1.92037 4.7996,-4.72141 5.81579,-7.88537 -0.12001,0.0528 -0.20353,0.17872 -0.2076,0.30976 -0.004,0.13104 0.0705,0.26101 0.18458,0.32555 0.11411,0.0646 0.26265,0.0619 0.37551,-0.005 0.11285,-0.0667 0.18648,-0.19437 0.18993,-0.32543 0.003,-0.13106 -0.0625,-0.26151 -0.16883,-0.33821 -0.10632,-0.0767 -0.24974,-0.0983 -0.37465,-0.0585 -0.1249,0.0399 -0.22872,0.13957 -0.27568,0.26197 -0.047,0.12241 -0.0368,0.26495 0.025,0.38057 0.0618,0.11563 0.17375,0.20281 0.30042,0.23663 0.12666,0.0338 0.26624,0.0144 0.38004,-0.0507 0.11379,-0.0651 0.20084,-0.17475 0.24068,-0.29966 0.0398,-0.12491 0.0326,-0.26383 -0.0179,-0.38483 -0.0505,-0.12099 -0.14344,-0.22337 -0.25788,-0.28734 -0.11444,-0.064 -0.24953,-0.0895 -0.37973,-0.0741 -0.1302,0.0154 -0.25498,0.0713 -0.35467,0.15647 -0.0997,0.0851 -0.17417,0.19899 -0.21455,0.32372 -0.0408,0.12514 -0.0475,0.26088 -0.0217,0.38993 0.0258,0.12906 0.0839,0.25124 0.16584,0.35426 0.16382,0.20604 0.4214,0.3297 0.68407,0.34692 0.26266,0.0172 0.52771,-0.0678 0.74272,-0.21969 0.21501,-0.15185 0.38107,-0.36779 0.4905,-0.60719 0.21885,-0.47882 0.2113,-1.03161 0.12431,-1.55083 -0.087,-0.51922 -0.24851,-1.02419 -0.3261,-1.5449 13.96909,-19.18304 31.94925,-36.61967 54.54488,-43.86961 11.29782,-3.62497 23.57074,-4.54107 35.11033,-1.78083 11.53959,2.76024 22.27783,9.31936 29.3402,18.85372 7.06237,9.53435 10.2124,22.06713 7.69104,33.66126 -1.26067,5.79706 -3.89692,11.30325 -7.70707,15.85056 -3.81016,4.5473 -8.79522,8.11958 -14.36447,10.16377 -5.56925,2.0442 -11.71211,2.54275 -17.51666,1.31703 -5.80456,-1.22573 -11.24703,-4.18568 -15.35339,-8.4674 -4.10635,-4.28172 -6.84556,-9.87677 -7.60286,-15.76079 -0.7573,-5.88403 0.49021,-12.0245 3.57486,-17.09207 2.69485,-5.28403 7.30021,-9.58756 12.79514,-11.82117 5.49493,-2.23361 11.8372,-2.35549 17.37734,-0.2365 5.54014,2.119 10.20637,6.4783 12.60217,11.90448 2.3958,5.42618 2.4631,11.85573 0.0867,17.29042 -2.37641,5.4347 -7.18471,9.77281 -12.86469,11.4819 -5.67999,1.70909 -12.12931,0.72452 -16.98318,-2.68476 -4.85387,-3.40927 -7.97941,-9.19265 -8.07176,-15.12347 -0.0923,-5.93083 2.88861,-11.84802 7.76678,-15.22244 4.87832,-3.37439 11.52177,-4.0656 16.95144,-1.67747 5.42967,2.38814 9.42844,7.8071 10.0125,13.70993 0.58405,5.90284 -2.31691,12.04385 -7.30015,15.26128 -4.98324,3.21742 -11.83311,3.31424 -16.85527,0.1579 -5.02216,-3.15634 -7.91123,-9.43457 -6.94856,-15.28759 0.96267,-5.85302 5.77009,-10.90427 11.58729,-12.06392 5.81719,-1.15965 12.24232,1.71061 15.18064,6.86336 2.93832,5.15275 2.10297,12.20598 -2.02355,16.46701 1.30967,-1.96826 2.02528,-4.32024 2.07203,-6.68394 0.0467,-2.3637 -0.57082,-4.73211 -1.73249,-6.79119 -1.16168,-2.05907 -2.86123,-3.80621 -4.86727,-5.05724 -2.00604,-1.25103 -4.31324,-2.00692 -6.66741,-2.22413 -4.70832,-0.43443 -9.5195,1.34073 -13.01928,4.52014 -3.49977,3.17942 -5.70065,7.68044 -6.35811,12.36283 -0.65746,4.6824 0.18321,9.52223 2.10551,13.84216 1.92231,4.31993 4.89792,8.13063 8.42261,11.28239 7.04939,6.30353 16.09018,9.90464 25.14787,12.62246 9.05775,2.71786 18.37259,4.69096 27.09737,8.33896 8.72478,3.64799 17.01496,9.22602 21.77641,17.39659 2.38073,4.08528 3.81108,8.76426 3.81393,13.49262 0.003,4.72836 -1.46553,9.4933 -4.37236,13.22261 -2.90683,3.7293 -7.27942,6.35326 -11.97901,6.87404 -2.3498,0.26039 -4.75982,0.003 -6.98891,-0.78477 -2.2291,-0.78771 -4.27286,-2.1077 -5.87947,-3.84211 38.31517,69.84999 75.46492,140.33926 111.42857,211.42857"
         style="fill:none;stroke:#e88d19;stroke-width:9.81382561;stroke-linecap:butt;stroke-linejoin:miter;stroke-miterlimit:4;stroke-opacity:1;stroke-dasharray:none" />
    </g>
    <g
       style="font-size:40px;font-style:normal;font-variant:normal;font-weight:normal;font-stretch:normal;line-height:125%;letter-spacing:0px;word-spacing:0px;fill:#8f2674;fill-opacity:1;stroke:#570040;stroke-opacity:1;font-family:UnPilgi;-inkscape-font-specification:UnPilgi;stroke-width:0;stroke-miterlimit:4;stroke-dasharray:none"
       id="text3793">
      <path
         d="m -3516.4787,-4086.2333 c 1.5359,-0.8639 3.2159,-1.2959 5.04,-1.296 1.9199,1e-4 4.7999,0.096 8.64,0.288 -0.4801,-1.0559 -1.9681,-1.5839 -4.464,-1.584 -3.5521,10e-5 -6.1441,0.1441 -7.776,0.432 -0.3841,0.4801 -0.8641,1.2001 -1.44,2.16 m -1.152,96.048 c -3.4561,0 -7.2001,-0.336 -11.232,-1.008 -4.0321,-0.576 -7.7281,-1.296 -11.088,-2.16 -3.36,-0.96 -7.008,-1.92 -10.944,-2.88 -3.168,1.536 -5.616,2.64 -7.344,3.312 -1.728,0.672 -3.84,1.296 -6.336,1.872 -2.496,0.576 -5.184,0.864 -8.064,0.864 -3.264,0 -6.192,-0.576 -8.784,-1.728 -2.592,-1.152 -3.888,-3.12 -3.888,-5.904 0,-3.552 2.16,-6.336 6.48,-8.352 4.32,-2.016 8.496,-3.024 12.528,-3.024 4.128,0 9.12,0.624 14.976,1.872 2.112,-4.128 3.504,-7.5839 4.176,-10.368 1.056,-4.3199 2.016,-10.8959 2.88,-19.728 0.96,-8.9279 2.256,-16.8959 3.888,-23.904 1.6319,-7.1039 4.2239,-13.0559 7.776,-17.856 2.7839,-3.5519 4.2719,-5.4719 4.464,-5.76 l 3.456,-5.616 c 1.5359,-2.3039 3.8399,-4.0319 6.912,-5.184 3.0719,-1.2479 5.6639,-1.9199 7.776,-2.016 2.2079,-0.1919 5.1839,-0.2879 8.928,-0.288 2.9759,1e-4 5.4719,0.6721 7.488,2.016 2.1119,1.2481 3.1679,3.2641 3.168,6.048 -1e-4,3.5521 -1.7761,6.4321 -5.328,8.64 -3.4561,2.2081 -7.0561,3.3121 -10.8,3.312 -8.0641,10e-5 -12.6721,-0.9119 -13.824,-2.736 -3.5521,5.0881 -5.8561,9.3601 -6.912,12.816 -1.5361,5.1841 -2.7841,12.0001 -3.744,20.448 -0.8641,8.3521 -2.0641,16.1281 -3.6,23.328 -1.4401,7.1041 -3.9841,13.488 -7.632,19.152 13.9199,3.84 24.0959,5.76 30.528,5.76 3.0719,0 7.7759,-1.728 14.112,-5.184 6.4319,-3.456 10.7999,-5.184 13.104,-5.184 0.8639,0 1.5839,0.336 2.16,1.008 0.6719,0.576 1.0079,1.248 1.008,2.016 -10e-5,0.864 -0.6241,1.92 -1.872,3.168 -0.8641,0.864 -4.9921,2.976 -12.384,6.336 -7.2961,3.36 -11.9041,5.328 -13.824,5.904 -2.4001,0.672 -5.1361,1.008 -8.208,1.008 m -46.8,-9.216 c -2.88,-0.48 -5.472,-0.72 -7.776,-0.72 l -0.576,0 c 0.768,0.576 2.256,0.864 4.464,0.864 1.728,0 3.024,-0.048 3.888,-0.144"
         style="font-size:144px;font-weight:bold;fill:#8f2674;stroke:#570040;font-family:UnPilgi;-inkscape-font-specification:UnPilgi Bold;stroke-width:0;stroke-miterlimit:4;stroke-dasharray:none;fill-opacity:1"
         id="path3821" />
      <path
         d="m -3467.3746,-4065.2093 c -0.384,1e-4 -0.912,-0.096 -1.584,-0.288 -0.384,-0.096 -0.672,-0.1439 -0.864,-0.144 l -0.864,-2.592 c 0.576,-1.5359 1.728,-2.9279 3.456,-4.176 1.728,-1.2479 3.408,-1.8719 5.04,-1.872 0.864,1e-4 1.872,0.5761 3.024,1.728 l 0,1.008 c 0.096,1.3441 -0.912,2.7361 -3.024,4.176 -2.016,1.4401 -3.744,2.1601 -5.184,2.16 m -10.08,59.616 c -4.704,3.264 -8.304,4.896 -10.8,4.896 -1.056,0 -2.352,-0.096 -3.888,-0.288 0.48,-2.4 1.392,-4.272 2.736,-5.616 1.344,-1.344 2.736,-2.256 4.176,-2.736 1.44,-0.576 2.976,-1.776 4.608,-3.6 1.728,-1.9199 3.12,-4.5119 4.176,-7.776 0.288,-0.9599 0.816,-3.7439 1.584,-8.352 0.768,-4.7039 1.296,-7.2479 1.584,-7.632 0.48,-0.9599 1.584,-1.9199 3.312,-2.88 1.824,-0.9599 3.264,-1.4399 4.32,-1.44 2.112,1e-4 3.168,1.5841 3.168,4.752 0,3.2641 -0.576,8.0641 -1.728,14.4 -1.056,6.3361 -1.584,11.136 -1.584,14.4 0,4.416 1.632,7.056 4.896,7.92 1.056,-2.592 2.784,-4.896 5.184,-6.912 2.496,-2.112 5.04,-3.168 7.632,-3.168 0.768,0 1.44,0.24 2.016,0.72 0.672,0.48 1.008,1.104 1.008,1.872 0,1.248 -0.672,2.4 -2.016,3.456 -1.344,1.056 -2.112,1.776 -2.304,2.16 -2.304,4.032 -4.56,6.912 -6.768,8.64 -2.112,1.728 -5.184,2.592 -9.216,2.592 -8.064,0 -12.096,-5.136 -12.096,-15.408"
         style="font-size:144px;font-weight:bold;fill:#8f2674;stroke:#570040;font-family:UnPilgi;-inkscape-font-specification:UnPilgi Bold;stroke-width:0;stroke-miterlimit:4;stroke-dasharray:none;fill-opacity:1"
         id="path3823" />
      <path
         d="m -3412.6546,-3988.8893 c -2.496,0.384 -4.368,0.576 -5.616,0.576 -5.088,0 -9.648,-1.488 -13.68,-4.464 -4.032,-2.88 -6.864,-6.768 -8.496,-11.664 -4.704,3.456 -8.784,5.184 -12.24,5.184 -0.96,0 -2.112,-0.096 -3.456,-0.288 0.384,-1.824 0.912,-3.216 1.584,-4.176 0.576,-1.056 1.152,-1.728 1.728,-2.016 0.48,-0.384 1.392,-0.864 2.736,-1.44 1.344,-0.576 2.496,-1.152 3.456,-1.728 2.88,-1.824 5.136,-4.704 6.768,-8.64 1.632,-4.0319 2.832,-6.6239 3.6,-7.776 2.88,-4.1279 7.008,-7.5839 12.384,-10.368 5.376,-2.7839 10.56,-4.1759 15.552,-4.176 4.224,10e-5 8.016,1.1041 11.376,3.312 2.4,-2.2079 4.56,-3.3119 6.48,-3.312 1.152,10e-5 2.016,0.5281 2.592,1.584 0.576,0.9601 0.816,2.0161 0.72,3.168 -0.096,1.1521 -0.096,2.2081 0,3.168 0,1.1521 -0.048,2.8801 -0.144,5.184 -0.096,2.3041 -0.144,4.0321 -0.144,5.184 0,3.7441 0.384,9.36 1.152,16.848 5.088,-2.304 8.64,-3.456 10.656,-3.456 l 1.584,0.72 c 0.576,0.768 0.864,1.488 0.864,2.16 0,1.44 -1.632,3.072 -4.896,4.896 -3.168,1.824 -5.664,2.88 -7.488,3.168 0.768,11.52 1.152,17.904 1.152,19.152 0,8.736 -0.768,16.32 -2.304,22.752 -1.536,6.528 -4.848,11.808 -9.936,15.84 -5.76,4.704 -12.528,7.056 -20.304,7.056 -5.472,0 -9.984,-1.488 -13.536,-4.464 -3.456,-2.88 -5.184,-7.008 -5.184,-12.384 0,-6.912 2.208,-14.016 6.624,-21.312 4.512,-7.2 9.984,-13.296 16.416,-18.288 m -0.72,-41.904 c -4.704,10e-5 -8.592,1.6321 -11.664,4.896 -3.072,3.1681 -4.608,7.1041 -4.608,11.808 0,4.32 1.728,8.16 5.184,11.52 3.456,3.36 7.344,5.04 11.664,5.04 4.32,0 7.68,-1.488 10.08,-4.464 2.4,-3.072 3.6,-6.864 3.6,-11.376 0,-4.5119 -1.296,-8.5439 -3.888,-12.096 -2.592,-3.5519 -6.048,-5.3279 -10.368,-5.328 m 16.272,39.6 c -6.624,4.032 -12.768,9.552 -18.432,16.56 -5.664,7.008 -8.496,13.776 -8.496,20.304 0,3.936 1.008,7.008 3.024,9.216 2.112,2.304 5.136,3.456 9.072,3.456 4.224,0 7.104,-0.672 8.64,-2.016 2.304,-2.016 4.032,-5.616 5.184,-10.8 1.248,-5.184 1.872,-9.84 1.872,-13.968 0,-5.184 -0.288,-12.768 -0.864,-22.752"
         style="font-size:144px;font-weight:bold;fill:#8f2674;stroke:#570040;font-family:UnPilgi;-inkscape-font-specification:UnPilgi Bold;stroke-width:0;stroke-miterlimit:4;stroke-dasharray:none;fill-opacity:1"
         id="path3825" />
      <path
         d="m -3319.1986,-3999.2573 c 2.112,-2.304 3.6,-3.936 4.464,-4.896 0.96,-0.96 2.544,-2.112 4.752,-3.456 2.208,-1.44 4.272,-2.16 6.192,-2.16 0.768,0 1.392,0.288 1.872,0.864 0.48,0.576 0.72,1.248 0.72,2.016 0,1.056 -0.288,1.872 -0.864,2.448 -0.48,0.576 -1.248,1.152 -2.304,1.728 -1.056,0.576 -1.776,1.056 -2.16,1.44 -1.152,0.96 -2.544,2.352 -4.176,4.176 -1.632,1.728 -2.928,2.976 -3.888,3.744 -0.864,0.768 -2.208,1.488 -4.032,2.16 -1.824,0.672 -3.984,1.008 -6.48,1.008 -7.584,0 -11.376,-4.752 -11.376,-14.256 0,-2.4 0.192,-5.904 0.576,-10.512 0.48,-4.6079 0.72,-8.0639 0.72,-10.368 0,-2.1119 -0.624,-3.7919 -1.872,-5.04 -1.248,-1.3439 -2.928,-2.0159 -5.04,-2.016 -3.84,1e-4 -7.296,1.2001 -10.368,3.6 -2.976,2.4001 -5.328,5.4721 -7.056,9.216 -1.728,3.7441 -3.024,7.584 -3.888,11.52 -0.864,3.84 -1.296,7.488 -1.296,10.944 0,1.632 -1.008,3.216 -3.024,4.752 -1.92,1.536 -3.744,2.304 -5.472,2.304 -2.112,0 -3.312,-1.536 -3.6,-4.608 -0.192,-3.072 -0.048,-5.424 0.432,-7.056 -1.536,0.672 -2.88,1.008 -4.032,1.008 -0.384,0 -1.008,-0.096 -1.872,-0.288 -0.96,-0.192 -1.584,-0.288 -1.872,-0.288 0.48,-2.208 1.248,-3.84 2.304,-4.896 1.056,-1.152 2.64,-2.256 4.752,-3.312 0.48,-0.096 0.768,-0.144 0.864,-0.144 0.192,-0.096 0.24,-0.336 0.144,-0.72 l -0.144,-0.72 c 0,-2.784 0.816,-10.3679 2.448,-22.752 1.056,-8.0639 2.88,-15.6959 5.472,-22.896 2.592,-7.2959 6.048,-14.0639 10.368,-20.304 4.416,-6.2399 9.984,-11.1839 16.704,-14.832 6.816,-3.7439 14.448,-5.6159 22.896,-5.616 12.288,1e-4 18.432,2.7361 18.432,8.208 0,2.5921 -1.92,5.9521 -5.76,10.08 -3.84,4.0321 -7.824,7.5361 -11.952,10.512 -4.128,2.9761 -7.536,5.5681 -10.224,7.776 -4.32,3.0721 -9.36,6.7681 -15.12,11.088 -5.664,4.3201 -10.368,8.3521 -14.112,12.096 l -0.432,0.432 c -0.192,0.7681 -0.288,1.8721 -0.288,3.312 6.624,-4.8959 13.776,-7.3439 21.456,-7.344 4.128,1e-4 7.296,1.1041 9.504,3.312 2.304,2.1121 3.456,5.1841 3.456,9.216 0,2.2081 -0.24,5.5201 -0.72,9.936 -0.384,4.416 -0.576,7.728 -0.576,9.936 0,6.432 1.824,9.648 5.472,9.648 m -0.432,-89.136 c -8.64,1e-4 -14.976,1.1041 -19.008,3.312 -5.664,3.0721 -10.368,8.5441 -14.112,16.416 -3.648,7.8721 -6.288,15.9361 -7.92,24.192 4.8,-4.1279 11.808,-9.6479 21.024,-16.56 9.312,-6.9119 15.6,-11.7119 18.864,-14.4 5.952,-4.6079 8.928,-8.1119 8.928,-10.512 0,-1.6319 -2.592,-2.4479 -7.776,-2.448"
         style="font-size:144px;font-weight:bold;fill:#8f2674;stroke:#570040;font-family:UnPilgi;-inkscape-font-specification:UnPilgi Bold;stroke-width:0;stroke-miterlimit:4;stroke-dasharray:none;fill-opacity:1"
         id="path3827" />
      <path
         d="m -3269.9506,-3990.1853 c -4.8,0 -9.408,-1.392 -13.824,-4.176 -4.32,-2.784 -7.248,-6.384 -8.784,-10.8 l -1.296,-3.744 c -1.92,1.92 -4.32,3.792 -7.2,5.616 -2.784,1.728 -5.28,2.592 -7.488,2.592 -0.864,0 -2.064,-0.096 -3.6,-0.288 0.48,-2.304 1.248,-4.032 2.304,-5.184 1.056,-1.248 2.112,-2.016 3.168,-2.304 0.96,-0.384 2.112,-1.2 3.456,-2.448 1.44,-1.344 2.688,-3.168 3.744,-5.472 1.056,-2.3039 1.824,-5.7599 2.304,-10.368 0.48,-4.6079 0.768,-7.1519 0.864,-7.632 l 5.184,-27.36 c 1.728,-8.2559 5.232,-12.3839 10.512,-12.384 2.112,10e-5 3.168,1.1041 3.168,3.312 0,4.6081 -1.536,12.0481 -4.608,22.32 l 27.36,-2.592 c 0.576,10e-5 1.68,-0.096 3.312,-0.288 1.728,-0.1919 3.072,-0.2879 4.032,-0.288 0.768,10e-5 1.584,0.2881 2.448,0.864 0.864,0.5761 1.296,1.2481 1.296,2.016 0,1.1521 -0.912,2.4001 -2.736,3.744 -1.728,1.2481 -3.216,1.9681 -4.464,2.16 l -32.688,3.168 c -0.096,1.2481 -0.432,3.3601 -1.008,6.336 -0.48,2.8801 -0.72,5.1361 -0.72,6.768 0,0.9601 0.336,2.8801 1.008,5.76 1.248,6.048 3.552,11.184 6.912,15.408 3.36,4.224 7.824,6.336 13.392,6.336 0.576,0 1.776,-0.864 3.6,-2.592 1.92,-1.728 4.128,-3.456 6.624,-5.184 2.592,-1.824 4.944,-2.736 7.056,-2.736 2.016,0 3.024,0.96 3.024,2.88 0,0.96 -0.384,1.824 -1.152,2.592 -0.672,0.672 -1.632,1.344 -2.88,2.016 -1.152,0.672 -1.92,1.152 -2.304,1.44 -0.768,0.576 -2.256,1.824 -4.464,3.744 -2.208,1.824 -3.792,3.024 -4.752,3.6 -0.864,0.672 -2.304,1.344 -4.32,2.016 -2.016,0.768 -4.176,1.152 -6.48,1.152"
         style="font-size:144px;font-weight:bold;fill:#8f2674;stroke:#570040;font-family:UnPilgi;-inkscape-font-specification:UnPilgi Bold;stroke-width:0;stroke-miterlimit:4;stroke-dasharray:none;fill-opacity:1"
         id="path3829" />
      <path
         d="m -3209.9034,-4006.4573 c -0.7681,-2.016 -1.8721,-4.176 -3.312,-6.48 -1.3441,-2.3999 -3.0241,-4.9439 -5.04,-7.632 -2.0161,-2.6879 -3.3121,-4.5119 -3.888,-5.472 -2.7841,4.2241 -4.9921,7.4401 -6.624,9.648 -1.5361,2.208 -3.7921,4.704 -6.768,7.488 -2.8801,2.784 -6.0481,4.992 -9.504,6.624 -2.304,1.248 -4.272,1.872 -5.904,1.872 -0.864,0 -2.064,-0.096 -3.6,-0.288 0.576,-2.688 1.632,-4.656 3.168,-5.904 1.44,-1.248 3.216,-2.448 5.328,-3.6 2.2079,-1.152 3.9839,-2.64 5.328,-4.464 0.6719,-0.8639 2.1599,-2.9759 4.464,-6.336 2.3039,-3.4559 4.3199,-6.3359 6.048,-8.64 1.7279,-2.3999 3.8399,-4.6559 6.336,-6.768 2.4959,-2.2079 4.7039,-3.3119 6.624,-3.312 0.6719,1e-4 1.3439,0.1441 2.016,0.432 l 4.896,8.208 c 0.8639,1.4401 2.4959,3.7441 4.896,6.912 2.3999,3.0721 4.2719,5.9041 5.616,8.496 1.3439,2.592 2.2079,5.328 2.592,8.208 0.6719,-0.096 1.9679,-0.384 3.888,-0.864 2.0159,-0.576 3.5519,-0.864 4.608,-0.864 0.7679,0 1.3919,0.24 1.872,0.72 0.5759,0.48 0.8639,1.104 0.864,1.872 -10e-5,2.016 -1.4401,3.696 -4.32,5.04 -2.8801,1.344 -5.5681,2.112 -8.064,2.304 -3.3601,3.264 -6.4801,5.616 -9.36,7.056 -2.7841,1.44 -6.1921,2.16 -10.224,2.16 -1.8241,0 -3.3601,-0.72 -4.608,-2.16 -1.2481,-1.344 -1.8721,-2.976 -1.872,-4.896 -1e-4,-2.496 1.3919,-4.8 4.176,-6.912 2.8799,-2.112 5.6639,-3.168 8.352,-3.168 0.6719,0 1.3439,0.24 2.016,0.72 m -2.592,6.624 c 0.2879,0.576 0.8159,0.864 1.584,0.864 1.3439,0 2.0159,-0.768 2.016,-2.304 l 0,-1.584 c -0.9601,1.536 -2.1601,2.544 -3.6,3.024"
         style="font-size:144px;font-weight:bold;fill:#8f2674;stroke:#570040;font-family:UnPilgi;-inkscape-font-specification:UnPilgi Bold;stroke-width:0;stroke-miterlimit:4;stroke-dasharray:none;fill-opacity:1"
         id="path3831" />
    </g>
  </g>
</svg>
